<?xml version="1.0" encoding="utf-8"?>
<!-- Generator: Adobe Illustrator 27.5.0, SVG Export Plug-In . SVG Version: 6.00 Build 0)  -->
<svg version="1.1" id="Layer_1" xmlns="http://www.w3.org/2000/svg" xmlns:xlink="http://www.w3.org/1999/xlink" x="0px" y="0px"
	 viewBox="0 0 4000 2416" style="enable-background:new 0 0 4000 2416;" xml:space="preserve">
<style type="text/css">
	.st0{fill:#4D191E;stroke:#4D191E;stroke-width:3.3858;stroke-miterlimit:10;}
	.st1{font-family:'Lancher-Regular';}
	.st2{font-size:255.6559px;}
	.st3{fill:#4D191E;stroke:#4D191E;stroke-width:0.887;stroke-miterlimit:10;}
</style>
<g>
	<g>
		<text transform="matrix(1 0 0 1 1235.2148 1498.417)" class="st0 st1 st2">Heifer Society</text>
	</g>
	<g>
		<path class="st3" d="M2022.17,849.14c0.19,0.77,0.38,1.56,0.53,2.35c0.18,0.79,0.32,1.6,0.45,2.41c0.52,3.17,0.78,6.47,0.78,9.89
			v5.06v3.69v3.96v52.81c6.07,8.92,14.97,17.18,25.39,25.46v-90.98c0-1.71,0.06-3.38,0.19-5.03c0.06-0.85,0.14-1.68,0.24-2.51
			c0.09-0.85,0.2-1.68,0.34-2.51c0.49-3.11,1.22-6.07,2.19-8.89c0.28-0.86,0.6-1.69,0.93-2.52c0.34-0.86,0.72-1.7,1.11-2.53
			c2.97-6.26,7.25-11.74,12.82-16.38l0.43-0.35v-3.91h-61.89v3.89l0.4,0.35C2014.22,830.48,2019.6,839.09,2022.17,849.14z"/>
		<path class="st3" d="M2023.94,1031.7v70.64c0,16.5-5.84,29.86-17.87,40.84l-0.38,0.34v3.88h61.7h0.19v-0.25v-3.64l-0.4-0.35
			c-12.02-10.5-17.85-23.85-17.85-40.81v-58.79C2041.9,1038.23,2033.37,1034.26,2023.94,1031.7z"/>
		<path class="st3" d="M2057.58,844.22c-1.1,2.73-1.94,5.61-2.52,8.65c2.85-0.4,5.9-0.62,9.14-0.62c36.09,0,45.5,22.78,47.9,36.34
			l0.34,1.96h6.16v-38.98l-1.88-0.39l-1.76-0.37c-21.23-4.46-32.93-6.91-50.76-6.91C2062.16,843.91,2059.95,844,2057.58,844.22z"/>
		<path class="st3" d="M2131.13,1029.72c-17.82-22.16-41.35-39.25-62.11-54.32c-5.13-3.73-10.16-7.37-14.96-10.99
			c-0.79-0.6-1.58-1.19-2.37-1.8c-0.8-0.6-1.58-1.22-2.37-1.82c-9.91-7.69-18.7-15.34-25.39-23.52c-0.82-1.01-1.61-2.01-2.37-3.04
			c-0.83-1.12-1.62-2.25-2.37-3.39c-5.45-8.34-8.65-17.33-8.65-27.47c0-9.63,3.16-19.82,8.65-28.28v-11.29c0-2.59-0.17-5.1-0.5-7.52
			c-1.35,0.77-2.7,1.57-4.02,2.42c-13.1,8.42-28.73,23.88-28.73,49.73c0,25.17,14,43.91,33.24,60.88c0.78,0.69,1.57,1.37,2.37,2.05
			c0.78,0.67,1.57,1.34,2.37,2.01c7.92,6.6,16.57,13,25.39,19.47c0.7,0.52,1.4,1.03,2.11,1.55c0.08,0.06,0.18,0.13,0.26,0.19
			c0.79,0.58,1.57,1.16,2.37,1.74c19.69,14.46,39.81,29.55,55.36,48.71c18.32,22.57,27.22,47.51,27.22,76.22
			c0,28.3-10.14,56.16-27.79,76.45c-21.57,24.8-53.63,37.9-92.7,37.9c-61.98,0-99.78-38.44-111.45-83.46
			c-0.82-3.09-1.5-6.2-2.05-9.33v-0.32l-0.06-0.06c-0.24-1.25-0.43-2.52-0.6-3.77c-0.82-5.69-1.22-11.42-1.22-17.16
			c0-26.2,8.48-50.3,23.87-67.87c17.23-19.69,42.14-30.1,72-30.1c7.92,0,15.46,0.73,22.57,2.2c0.79,0.15,1.58,0.32,2.37,0.51
			c0.8,0.18,1.58,0.37,2.37,0.58c9.33,2.39,17.85,6.08,25.39,11.01c0.8,0.51,1.58,1.04,2.37,1.6c0.8,0.57,1.58,1.15,2.37,1.75
			c3.31,2.52,6.4,5.31,9.26,8.36c13.75,14.63,21.64,35.04,21.64,56c0,16.02-4.45,31.06-12.65,43.11c-0.8,1.19-1.66,2.37-2.54,3.5
			c-0.66,0.84-1.34,1.67-2.03,2.47c-12.31,14.22-29.77,21.73-50.5,21.73c-2.72,0-4.75-0.28-6.15-0.65c0.99-1.23,1.66-2.89,1.66-4.93
			c0-3.68-2.97-6.34-7.06-6.34c-3.88,0-7.79,2.92-7.79,8.5c0,4.4,2.61,11.77,20.07,11.77c23.17,0,42.79-8.53,56.72-24.66
			c12.52-14.48,19.42-33.99,19.42-54.92c0-23.38-8.49-45.21-23.91-61.47c-4.81-5.07-10.21-9.5-16.12-13.25
			c-0.78-0.5-1.56-0.97-2.37-1.44c-0.78-0.46-1.56-0.91-2.37-1.35c-7.7-4.23-16.2-7.42-25.39-9.48c-0.78-0.19-1.57-0.35-2.37-0.51
			c-0.78-0.17-1.57-0.32-2.37-0.46c-7.16-1.29-14.69-1.95-22.57-1.95c-32.29,0-59.35,11.34-78.27,32.82
			c-16.88,19.16-26.17,45.27-26.17,73.5c0,1.49,0.02,2.97,0.08,4.45c0.06,1.73,0.15,3.44,0.3,5.16c0.11,1.56,0.26,3.11,0.44,4.66
			c-0.98-1.25-1.9-2.54-2.74-3.86c-0.98-1.51-1.87-3.07-2.67-4.66c-3.73-7.4-5.56-15.67-5.56-24.91V986.63h141.9v26.62
			c9.12,1.96,17.61,4.97,25.39,8.96c0.79,0.4,1.58,0.83,2.37,1.25v-23.03c-0.79-0.58-1.57-1.16-2.37-1.74
			c-0.24-0.17-0.46-0.34-0.7-0.51c-8.6-6.3-16.94-12.43-24.69-18.72v0.01h-141.9v-115.7c0-16.5,6-30.09,17.85-40.39l0.4-0.35v-3.89
			h-61.89v3.91l0.43,0.35c11.83,9.85,17.82,23.43,17.82,40.36v238.55c0,16.96-5.84,30.31-17.85,40.81l-0.4,0.35v3.89h56.48
			c0.15,0.79,0.33,1.57,0.51,2.37c0.18,0.79,0.37,1.58,0.57,2.37c4.93,19.94,14.62,38.45,28.16,53.2
			c23.39,25.5,56.59,38.97,96.01,38.97c56.32,0,89.68-23.2,107.74-42.67c21.44-23.11,33.73-53.99,33.73-84.71
			C2161.6,1083.77,2151.64,1055.24,2131.13,1029.72z"/>
	</g>
</g>
</svg>
